<mxfile host="Electron" agent="Mozilla/5.0 (Windows NT 10.0; Win64; x64) AppleWebKit/537.36 (KHTML, like Gecko) draw.io/24.7.5 Chrome/126.0.6478.183 Electron/31.3.0 Safari/537.36" version="24.7.5">
  <diagram name="第 1 页" id="QP-3YiwulApTLFGWL1a8">
    <mxGraphModel dx="1004" dy="746" grid="1" gridSize="10" guides="1" tooltips="1" connect="1" arrows="1" fold="1" page="1" pageScale="1" pageWidth="827" pageHeight="1169" math="0" shadow="0">
      <root>
        <mxCell id="0" />
        <mxCell id="1" parent="0" />
        <mxCell id="gDEcxETU6IpLovqzoTw5-4" style="edgeStyle=orthogonalEdgeStyle;rounded=0;orthogonalLoop=1;jettySize=auto;html=1;exitX=1;exitY=0.5;exitDx=0;exitDy=0;" edge="1" parent="1" source="gDEcxETU6IpLovqzoTw5-1" target="gDEcxETU6IpLovqzoTw5-2">
          <mxGeometry relative="1" as="geometry" />
        </mxCell>
        <mxCell id="gDEcxETU6IpLovqzoTw5-1" value="&lt;font style=&quot;font-size: 15px;&quot;&gt;用户浏览自己的帖子&lt;/font&gt;" style="rounded=1;whiteSpace=wrap;html=1;" vertex="1" parent="1">
          <mxGeometry x="160" y="190" width="120" height="60" as="geometry" />
        </mxCell>
        <mxCell id="gDEcxETU6IpLovqzoTw5-5" style="edgeStyle=orthogonalEdgeStyle;rounded=0;orthogonalLoop=1;jettySize=auto;html=1;exitX=1;exitY=0.5;exitDx=0;exitDy=0;" edge="1" parent="1" source="gDEcxETU6IpLovqzoTw5-2" target="gDEcxETU6IpLovqzoTw5-3">
          <mxGeometry relative="1" as="geometry" />
        </mxCell>
        <mxCell id="gDEcxETU6IpLovqzoTw5-2" value="&lt;font style=&quot;font-size: 15px;&quot;&gt;点击删除&lt;/font&gt;" style="rounded=1;whiteSpace=wrap;html=1;" vertex="1" parent="1">
          <mxGeometry x="354" y="190" width="120" height="60" as="geometry" />
        </mxCell>
        <mxCell id="gDEcxETU6IpLovqzoTw5-3" value="&lt;font style=&quot;font-size: 15px;&quot;&gt;删除成功&lt;/font&gt;" style="rounded=1;whiteSpace=wrap;html=1;" vertex="1" parent="1">
          <mxGeometry x="560" y="190" width="120" height="60" as="geometry" />
        </mxCell>
        <mxCell id="gDEcxETU6IpLovqzoTw5-6" style="edgeStyle=orthogonalEdgeStyle;rounded=0;orthogonalLoop=1;jettySize=auto;html=1;exitX=1;exitY=0.5;exitDx=0;exitDy=0;" edge="1" parent="1" source="gDEcxETU6IpLovqzoTw5-7" target="gDEcxETU6IpLovqzoTw5-9">
          <mxGeometry relative="1" as="geometry" />
        </mxCell>
        <mxCell id="gDEcxETU6IpLovqzoTw5-7" value="&lt;font style=&quot;font-size: 15px;&quot;&gt;管理员浏览任意帖子&lt;/font&gt;" style="rounded=1;whiteSpace=wrap;html=1;" vertex="1" parent="1">
          <mxGeometry x="160" y="280" width="120" height="60" as="geometry" />
        </mxCell>
        <mxCell id="gDEcxETU6IpLovqzoTw5-8" style="edgeStyle=orthogonalEdgeStyle;rounded=0;orthogonalLoop=1;jettySize=auto;html=1;exitX=1;exitY=0.5;exitDx=0;exitDy=0;" edge="1" parent="1" source="gDEcxETU6IpLovqzoTw5-9" target="gDEcxETU6IpLovqzoTw5-10">
          <mxGeometry relative="1" as="geometry" />
        </mxCell>
        <mxCell id="gDEcxETU6IpLovqzoTw5-9" value="&lt;font style=&quot;font-size: 15px;&quot;&gt;点击删除&lt;/font&gt;" style="rounded=1;whiteSpace=wrap;html=1;" vertex="1" parent="1">
          <mxGeometry x="354" y="280" width="120" height="60" as="geometry" />
        </mxCell>
        <mxCell id="gDEcxETU6IpLovqzoTw5-10" value="&lt;font style=&quot;font-size: 15px;&quot;&gt;删除成功&lt;/font&gt;" style="rounded=1;whiteSpace=wrap;html=1;" vertex="1" parent="1">
          <mxGeometry x="560" y="280" width="120" height="60" as="geometry" />
        </mxCell>
      </root>
    </mxGraphModel>
  </diagram>
</mxfile>
